<svg width="0" height="0" class="hidden">
  <symbol xmlns="http://www.w3.org/2000/svg" viewBox="0 0 24 24" id="facebook">
    <title>facebook</title>
    <path d="M17 3v2h-2c-.552 0-1.053.225-1.414.586S13 6.448 13 7v3a1 1 0 001 1h2.719l-.5 2H14a1 1 0 00-1 1v7h-2v-7a1 1 0 00-1-1H8v-2h2a1 1 0 001-1V7c0-1.105.447-2.103 1.172-2.828S13.895 3 15 3zm1-2h-3c-1.657 0-3.158.673-4.243 1.757S9 5.343 9 7v2H7a1 1 0 00-1 1v4a1 1 0 001 1h2v7a1 1 0 001 1h4a1 1 0 001-1v-7h2c.466 0 .858-.319.97-.757l1-4A1 1 0 0018 9h-3V7h3a1 1 0 001-1V2a1 1 0 00-1-1z"></path>
  </symbol>
  <symbol xmlns="http://www.w3.org/2000/svg" xmlns:xlink="http://www.w3.org/1999/xlink" viewBox="0 0 16 16" id="icon-arrow">
    <defs>
      <filter x="-25%" y="-25%" width="150%" height="150%" filterUnits="objectBoundingBox" id="a">
        <feOffset in="SourceAlpha" result="shadowOffsetOuter1"></feOffset>
        <feGaussianBlur stdDeviation="1" in="shadowOffsetOuter1" result="shadowBlurOuter1"></feGaussianBlur>
        <feColorMatrix values="0 0 0 0 0.384313725 0 0 0 0 0.878431373 0 0 0 0 0.850980392 0 0 0 0.811141304 0" in="shadowBlurOuter1"></feColorMatrix>
      </filter>
      <circle id="b" cx="6" cy="6" r="6"></circle>
    </defs>
    <g fill="none" fill-rule="evenodd">
      <g transform="translate(2 2)">
        <use fill="#000" filter="url(#a)" xlink:href="#b"></use>
        <use fill="#62E0D9" xlink:href="#b"></use>
      </g>
      <path d="M8.582 6l-.363.35 1.452 1.4H5.333v.5h4.338L8.22 9.65l.363.35 2.074-2z" fill="#1B2330"></path>
    </g>
  </symbol>
  <symbol xmlns="http://www.w3.org/2000/svg" viewBox="0 0 20 16" id="icon-email">
    <g fill="none" fill-rule="evenodd">
      <path d="M-2-4h24v24H-2z"></path>
      <path d="M18 0H2C.9 0 0 .9 0 2v12c0 1.1.9 2 2 2h16c1.1 0 2-.9 2-2V2c0-1.1-.9-2-2-2zm0 14h-2V5.2L10 9 4 5.2V14H2V2h1.2L10 6.2 16.8 2H18v12z" fill="#FFF"></path>
    </g>
  </symbol>
  <symbol xmlns="http://www.w3.org/2000/svg" viewBox="0 0 13 18" id="icon-location">
    <path d="M6.188 0C2.74 0 0 2.79 0 6.3 0 10.98 6.188 18 6.188 18s6.187-7.02 6.187-11.7c0-3.51-2.74-6.3-6.188-6.3zm0 8.55c-1.238 0-2.21-.99-2.21-2.25s.972-2.25 2.21-2.25c1.237 0 2.21.99 2.21 2.25s-.973 2.25-2.21 2.25z" fill="#FFF" fill-rule="evenodd"></path>
  </symbol>
  <symbol xmlns="http://www.w3.org/2000/svg" viewBox="0 0 24 24" id="icon-phone">
    <title>instagram</title>
    <path d="M7 1c-1.657 0-3.158.673-4.243 1.757S1 5.343 1 7v10c0 1.657.673 3.158 1.757 4.243S5.343 23 7 23h10c1.657 0 3.158-.673 4.243-1.757S23 18.657 23 17V7c0-1.657-.673-3.158-1.757-4.243S18.657 1 17 1zm0 2h10c1.105 0 2.103.447 2.828 1.172S21 5.895 21 7v10c0 1.105-.447 2.103-1.172 2.828S18.105 21 17 21H7c-1.105 0-2.103-.447-2.828-1.172S3 18.105 3 17V7c0-1.105.447-2.103 1.172-2.828S5.895 3 7 3zm9.989 8.223a5.054 5.054 0 00-1.194-2.567 4.962 4.962 0 00-3.009-1.644 4.904 4.904 0 00-1.477-.002c-1.366.202-2.521.941-3.282 1.967s-1.133 2.347-.93 3.712.941 2.521 1.967 3.282 2.347 1.133 3.712.93 2.521-.941 3.282-1.967 1.133-2.347.93-3.712zm-1.978.294c.122.82-.1 1.609-.558 2.227s-1.15 1.059-1.969 1.18-1.609-.1-2.227-.558-1.059-1.15-1.18-1.969.1-1.609.558-2.227 1.15-1.059 1.969-1.18a2.976 2.976 0 012.688.984c.375.428.63.963.72 1.543zM17.5 7.5a1 1 0 100-2 1 1 0 000 2z"></path>
  </symbol>
  <symbol xmlns="http://www.w3.org/2000/svg" viewBox="0 0 18 18" id="instagram">
    <path d="M17 12.5c-1.2 0-2.4-.2-3.6-.6-.3-.1-.7 0-1 .2l-2.2 2.2c-2.8-1.4-5.1-3.8-6.6-6.6l2.2-2.2c.3-.3.4-.7.2-1-.3-1.1-.5-2.3-.5-3.5 0-.6-.4-1-1-1H1C.4 0 0 .4 0 1c0 9.4 7.6 17 17 17 .6 0 1-.4 1-1v-3.5c0-.6-.4-1-1-1zM16 9h2c0-5-4-9-9-9v2c3.9 0 7 3.1 7 7zm-4 0h2c0-2.8-2.2-5-5-5v2c1.7 0 3 1.3 3 3z" fill="#FFF" fill-rule="evenodd"></path>
  </symbol>
  <symbol xmlns="http://www.w3.org/2000/svg" viewBox="0 0 24 24" id="twitter">
    <title>twitter</title>
    <path d="M20.833 5.262a6.685 6.685 0 01-.616.696.997.997 0 00-.278.908c.037.182.06.404.061.634 0 5.256-2.429 8.971-5.81 10.898-2.647 1.509-5.938 1.955-9.222 1.12a12.682 12.682 0 003.593-1.69 1 1 0 00-.156-1.741c-2.774-1.233-4.13-2.931-4.769-4.593-.417-1.084-.546-2.198-.52-3.227.021-.811.138-1.56.278-2.182.394.343.803.706 1.235 1.038a11.59 11.59 0 007.395 2.407c.543-.015.976-.457.976-1V7.519a3.459 3.459 0 011.196-2.674c.725-.631 1.636-.908 2.526-.846s1.753.463 2.384 1.188a1 1 0 001.033.304c.231-.067.463-.143.695-.228zm1.591-3.079a9.884 9.884 0 01-2.287 1.205 5.469 5.469 0 00-3.276-1.385 5.465 5.465 0 00-3.977 1.332A5.464 5.464 0 0011 7.507a9.589 9.589 0 01-5.15-1.97 9.87 9.87 0 01-2.034-2.116 1 1 0 00-1.729.172s-.132.299-.285.76a13.57 13.57 0 00-.357 1.29 13.224 13.224 0 00-.326 2.571c-.031 1.227.12 2.612.652 3.996.683 1.775 1.966 3.478 4.147 4.823A10.505 10.505 0 011.045 18a1 1 0 00-.53 1.873c4.905 2.725 10.426 2.678 14.666.261C19.221 17.833 22 13.434 22 7.5a5.565 5.565 0 00-.023-.489 8.626 8.626 0 001.996-3.781 1 1 0 00-1.55-1.047z"></path>
  </symbol>
</svg>